<?xml version="1.0" encoding="utf-8"?>
<!-- Generator: Adobe Illustrator 23.0.1, SVG Export Plug-In . SVG Version: 6.00 Build 0)  -->
<svg version="1.1" id="Layer_1" xmlns="http://www.w3.org/2000/svg" xmlns:xlink="http://www.w3.org/1999/xlink" x="0px" y="0px"
	 viewBox="0 0 125 39.55" style="enable-background:new 0 0 125 39.55;" xml:space="preserve">
<style type="text/css">
	.st0{fill:#22429A;}
	.st1{fill:#FFFFFF;}
</style>
<circle class="st0" cx="17.65" cy="19.65" r="17.65"/>
<g>
	<path class="st1" d="M3.14,20.77l9.62-4.95v1.43l-8.1,4.06v0.04l8.1,4.06v1.43l-9.62-4.95V20.77z"/>
	<path class="st1" d="M14.11,27.67l5.78-15.03h1.41l-5.8,15.03H14.11z"/>
	<path class="st1" d="M32.22,21.91l-9.62,4.93v-1.43l8.17-4.06v-0.04l-8.17-4.06v-1.43l9.62,4.93V21.91z"/>
</g>
<g>
	<path class="st1" d="M45.2,22.29h6.13c-0.31,3.04-2.38,4.98-5.4,4.98c-3.24,0-5.66-2.33-5.66-6.01c0-3.7,2.42-6.04,5.66-6.04
		c2.16,0,3.83,1.04,4.67,2.82H53c-1.15-2.95-3.83-4.63-7.07-4.63c-4.32,0-7.71,3.24-7.71,7.84c0,4.6,3.39,7.82,7.71,7.82
		c4.16,0,7.18-3.06,7.54-6.87v-1.54H45.2V22.29z"/>
	<path class="st1" d="M65.58,19.08c-0.71-1.26-2.25-2.4-4.49-2.4c-3.24,0-5.73,2.42-5.73,6.19c0,3.75,2.49,6.28,5.71,6.28
		c2.23,0,3.79-1.15,4.52-2.45v2.25h2.03V16.88h-2.03V19.08z M61.49,27.38c-2.2,0-4.08-1.67-4.08-4.52c0-2.84,1.87-4.45,4.08-4.45
		c2.2,0,4.1,1.67,4.1,4.47C65.58,25.73,63.69,27.38,61.49,27.38z"/>
	<path class="st1" d="M79.71,23.51c0,2.6-1.39,3.88-3.46,3.88c-2.03,0-3.37-1.26-3.37-3.7v-6.81H70.9v7.07
		c0,3.46,2.18,5.18,4.96,5.18c1.61,0,3.08-0.71,3.86-1.96v1.79h2.01V16.88h-2.01V23.51z"/>
	<path class="st1" d="M90.25,18.37c1.79,0,3,0.93,3.42,2.38h2.16c-0.62-2.53-2.58-4.08-5.58-4.08c-3.44,0-5.88,2.42-5.88,6.21
		c0,3.83,2.45,6.26,5.88,6.26c3,0,4.96-1.67,5.58-4.08h-2.16c-0.44,1.52-1.63,2.38-3.42,2.38c-2.2,0-3.83-1.56-3.83-4.56
		C86.41,19.94,88.04,18.37,90.25,18.37z"/>
	<path class="st1" d="M104.48,16.65c-1.7,0-3.19,0.68-3.99,1.96v-5.97h-2.01v16.3h2.01v-6.68c0-2.6,1.41-3.88,3.46-3.88
		c2.03,0,3.37,1.26,3.37,3.72v6.83h1.98v-7.12C109.31,18.37,107.17,16.65,104.48,16.65z"/>
	<path class="st1" d="M117.95,16.68c-3.42,0-6.1,2.4-6.1,6.21c0,3.83,2.6,6.26,6.02,6.26c3.44,0,6.19-2.42,6.19-6.26
		C124.05,19.08,121.38,16.68,117.95,16.68z M117.86,27.38c-2.09,0-3.97-1.43-3.97-4.5c0-3.04,1.92-4.47,4.03-4.47
		c2.07,0,4.08,1.43,4.08,4.47C122,25.95,119.95,27.38,117.86,27.38z"/>
</g>
</svg>
